<svg id="切り抜き" xmlns="http://www.w3.org/2000/svg" viewBox="0 0 400 400"><defs><style>.cls-1{fill:#1F2937;}</style></defs><path class="cls-1" d="M400,200c0,110.46-89.54,200-200,200-3,0-6.07-.07-9.07-.21a70.8,70.8,0,0,0,9.8-31.88c.45-7.14,5.75-34,7.22-57.6,13.49,6.6,34.81,4.2,35.94-2.6,1.2-7.14-1.11-16.66-5.66-26.06,21-8.75,21.75-39.69,43.72-54,27.21-17.76,73.8-19.94,75.53-40.32C363,122.64,208.68,51,208.68,51s-173.29,89.67-167,138.58c1.78,13.86,38.21,9.64,65.31,27.83,21.83,14.65,32.62,52,52.69,62.19-7.47,12.54-12.2,25-11.23,30.38,1.51,8.28,21.87,9,36,3.24,1.66,14.43,3.6,32.37,2.66,53.56-.51,11.49-6,22-14.15,31.4C75.28,385,0,301.28,0,200,0,89.54,89.54,0,200,0S400,89.54,400,200Z"/></svg>